<svg width="120" height="30" viewBox="0 0 120 30" fill="none" xmlns="http://www.w3.org/2000/svg">
<path d="M39.0029 7.99951V21.7492H41.8657V12.1013H41.9047L45.3127 21.7492H47.6692L51.0773 12.005H51.1162V21.7492H53.979V7.99951H49.6751L46.5981 17.4548H46.5591L43.3068 7.99951H39.0029Z" fill="#8794BA"/>
<path d="M62.0417 15.7024H57.543C57.556 15.5098 57.5949 15.2916 57.6599 15.0477C57.7378 14.8037 57.8611 14.5726 58.0299 14.3544C58.2116 14.1361 58.4453 13.9564 58.731 13.8152C59.0296 13.6611 59.3996 13.5841 59.841 13.5841C60.5162 13.5841 61.016 13.7638 61.3406 14.1233C61.6781 14.4828 61.9118 15.0091 62.0417 15.7024ZM57.543 17.4356H64.8071C64.859 16.6653 64.7941 15.9271 64.6123 15.221C64.4306 14.5149 64.132 13.8858 63.7165 13.3338C63.314 12.7817 62.7947 12.3452 62.1585 12.0243C61.5223 11.6905 60.7758 11.5236 59.9189 11.5236C59.1529 11.5236 58.4518 11.6584 57.8157 11.928C57.1925 12.1976 56.6537 12.5699 56.1993 13.0449C55.7448 13.5071 55.3943 14.0591 55.1476 14.701C54.9009 15.3429 54.7776 16.0362 54.7776 16.7808C54.7776 17.5511 54.8944 18.2572 55.1281 18.8991C55.3748 19.541 55.7189 20.093 56.1603 20.5552C56.6017 21.0174 57.1405 21.3769 57.7767 21.6336C58.4129 21.8775 59.127 21.9995 59.9189 21.9995C61.0614 21.9995 62.0352 21.7427 62.8401 21.2292C63.6451 20.7157 64.2423 19.862 64.6318 18.668H62.1975C62.1066 18.9761 61.8599 19.2714 61.4574 19.5538C61.0549 19.8234 60.5746 19.9582 60.0163 19.9582C59.2373 19.9582 58.6401 19.7593 58.2246 19.3613C57.8092 18.9633 57.582 18.3214 57.543 17.4356Z" fill="#8794BA"/>
<path d="M73.1076 16.7423C73.1076 17.1531 73.0686 17.5511 72.9907 17.9362C72.9128 18.3214 72.783 18.668 72.6012 18.9761C72.4195 19.2714 72.1728 19.5089 71.8612 19.6886C71.5626 19.8684 71.1861 19.9582 70.7316 19.9582C70.3032 19.9582 69.9332 19.8684 69.6216 19.6886C69.323 19.4961 69.0698 19.2521 68.8621 18.9569C68.6673 18.6488 68.5245 18.3021 68.4336 17.917C68.3428 17.5318 68.2973 17.1467 68.2973 16.7615C68.2973 16.3507 68.3363 15.9592 68.4142 15.5869C68.505 15.2017 68.6414 14.8615 68.8231 14.5662C69.0179 14.2709 69.271 14.0334 69.5826 13.8537C69.8942 13.674 70.2772 13.5841 70.7316 13.5841C71.1861 13.5841 71.5626 13.674 71.8612 13.8537C72.1598 14.0334 72.4 14.2709 72.5817 14.5662C72.7765 14.8487 72.9128 15.1825 72.9907 15.5676C73.0686 15.9399 73.1076 16.3315 73.1076 16.7423ZM73.1465 20.4782V21.7492H75.7756V7.99951H73.0102V13.0064H72.9712C72.6596 12.5185 72.2312 12.1527 71.6859 11.9087C71.1536 11.652 70.5888 11.5236 69.9916 11.5236C69.2516 11.5236 68.6024 11.6712 68.0441 11.9665C67.4859 12.2489 67.0185 12.6277 66.642 13.1027C66.2784 13.5777 65.9993 14.1297 65.8046 14.7588C65.6228 15.375 65.5319 16.0169 65.5319 16.6845C65.5319 17.3778 65.6228 18.0454 65.8046 18.6873C65.9993 19.3292 66.2784 19.9005 66.642 20.4012C67.0185 20.889 67.4924 21.2806 68.0636 21.5759C68.6349 21.8583 69.297 21.9995 70.05 21.9995C70.7122 21.9995 71.3029 21.884 71.8222 21.6529C72.3545 21.409 72.783 21.0174 73.1076 20.4782H73.1465Z" fill="#8794BA"/>
<path d="M79.7874 14.4699V10.3489H82.1633C82.5139 10.3489 82.8514 10.3746 83.176 10.4259C83.5006 10.4773 83.7862 10.58 84.0329 10.734C84.2796 10.8753 84.4743 11.0807 84.6171 11.3503C84.7729 11.6199 84.8508 11.9729 84.8508 12.4094C84.8508 12.8459 84.7729 13.199 84.6171 13.4686C84.4743 13.7382 84.2796 13.95 84.0329 14.1041C83.7862 14.2453 83.5006 14.3416 83.176 14.3929C82.8514 14.4443 82.5139 14.4699 82.1633 14.4699H79.7874ZM76.7299 7.99951V21.7492H79.7874V16.8193H83.0007C83.8706 16.8193 84.6106 16.6974 85.2208 16.4534C85.831 16.1967 86.3244 15.8629 86.7009 15.4521C87.0904 15.0412 87.3696 14.5726 87.5383 14.0463C87.7201 13.5071 87.811 12.9615 87.811 12.4094C87.811 11.8445 87.7201 11.2989 87.5383 10.7726C87.3696 10.2462 87.0904 9.7776 86.7009 9.36678C86.3244 8.95595 85.831 8.62858 85.2208 8.38466C84.6106 8.12789 83.8706 7.99951 83.0007 7.99951H76.7299Z" fill="#8794BA"/>
<path d="M95.0901 15.7024H90.5914C90.6044 15.5098 90.6434 15.2916 90.7083 15.0477C90.7862 14.8037 90.9095 14.5726 91.0783 14.3544C91.2601 14.1361 91.4938 13.9564 91.7794 13.8152C92.078 13.6611 92.448 13.5841 92.8895 13.5841C93.5646 13.5841 94.0644 13.7638 94.389 14.1233C94.7266 14.4828 94.9603 15.0091 95.0901 15.7024ZM90.5914 17.4356H97.8555C97.9074 16.6653 97.8425 15.9271 97.6608 15.221C97.479 14.5149 97.1804 13.8858 96.7649 13.3338C96.3624 12.7817 95.8431 12.3452 95.207 12.0243C94.5708 11.6905 93.8242 11.5236 92.9674 11.5236C92.2014 11.5236 91.5003 11.6584 90.8641 11.928C90.2409 12.1976 89.7021 12.5699 89.2477 13.0449C88.7933 13.5071 88.4427 14.0591 88.1961 14.701C87.9494 15.3429 87.826 16.0362 87.826 16.7808C87.826 17.5511 87.9429 18.2572 88.1766 18.8991C88.4233 19.541 88.7673 20.093 89.2087 20.5552C89.6502 21.0174 90.189 21.3769 90.8251 21.6336C91.4613 21.8775 92.1754 21.9995 92.9674 21.9995C94.1099 21.9995 95.0836 21.7427 95.8886 21.2292C96.6935 20.7157 97.2907 19.862 97.6802 18.668H95.2459C95.155 18.9761 94.9083 19.2714 94.5059 19.5538C94.1034 19.8234 93.623 19.9582 93.0647 19.9582C92.2857 19.9582 91.6885 19.7593 91.2731 19.3613C90.8576 18.9633 90.6304 18.3214 90.5914 17.4356Z" fill="#8794BA"/>
<path d="M98.8919 14.8551C98.9309 14.2132 99.0932 13.6804 99.3788 13.2567C99.6644 12.8331 100.028 12.4929 100.469 12.2361C100.911 11.9793 101.404 11.7996 101.949 11.6969C102.508 11.5814 103.066 11.5236 103.624 11.5236C104.131 11.5236 104.643 11.5621 105.163 11.6391C105.682 11.7033 106.156 11.8381 106.584 12.0435C107.013 12.2489 107.363 12.5378 107.636 12.9101C107.909 13.2696 108.045 13.751 108.045 14.3544V19.5346C108.045 19.9839 108.071 20.414 108.123 20.8248C108.175 21.2356 108.266 21.5438 108.396 21.7492H105.591C105.539 21.5951 105.494 21.4411 105.455 21.287C105.429 21.1201 105.409 20.9532 105.396 20.7863C104.955 21.2356 104.436 21.5502 103.839 21.7299C103.241 21.9096 102.631 21.9995 102.008 21.9995C101.528 21.9995 101.08 21.9417 100.664 21.8262C100.249 21.7107 99.8851 21.5309 99.5736 21.287C99.262 21.0431 99.0153 20.735 98.8335 20.3626C98.6647 19.9903 98.5803 19.5474 98.5803 19.0339C98.5803 18.469 98.6777 18.0068 98.8725 17.6474C99.0802 17.2751 99.3399 16.9798 99.6515 16.7615C99.976 16.5433 100.34 16.3828 100.742 16.2801C101.157 16.1646 101.573 16.0747 101.988 16.0105C102.404 15.9463 102.813 15.895 103.215 15.8565C103.618 15.8179 103.975 15.7602 104.286 15.6831C104.598 15.6061 104.845 15.497 105.026 15.3558C105.208 15.2017 105.293 14.9835 105.28 14.701C105.28 14.4057 105.228 14.1747 105.124 14.0078C105.033 13.828 104.903 13.6932 104.734 13.6034C104.579 13.5007 104.39 13.4365 104.17 13.4108C103.962 13.3723 103.735 13.353 103.488 13.353C102.943 13.353 102.514 13.4686 102.203 13.6996C101.891 13.9307 101.709 14.3159 101.657 14.8551H98.8919ZM105.28 16.8771C105.163 16.9798 105.013 17.0632 104.832 17.1274C104.663 17.1788 104.475 17.2237 104.267 17.2622C104.072 17.3007 103.864 17.3328 103.644 17.3585C103.423 17.3842 103.202 17.4163 102.982 17.4548C102.774 17.4933 102.566 17.5447 102.358 17.6089C102.164 17.6731 101.988 17.7629 101.833 17.8785C101.69 17.9812 101.573 18.116 101.482 18.2829C101.391 18.4498 101.346 18.6616 101.346 18.9184C101.346 19.1623 101.391 19.3677 101.482 19.5346C101.573 19.7015 101.696 19.8363 101.852 19.939C102.008 20.0289 102.19 20.093 102.397 20.1316C102.605 20.1701 102.819 20.1893 103.04 20.1893C103.585 20.1893 104.007 20.0995 104.306 19.9197C104.605 19.74 104.825 19.5282 104.968 19.2842C105.111 19.0275 105.195 18.7707 105.221 18.514C105.26 18.2572 105.28 18.0518 105.28 17.8977V16.8771Z" fill="#8794BA"/>
<path d="M109.077 11.7932V21.7492H111.843V17.2622C111.843 16.8129 111.888 16.3957 111.979 16.0105C112.07 15.6254 112.219 15.2916 112.427 15.0091C112.648 14.7139 112.933 14.4828 113.284 14.3159C113.634 14.149 114.063 14.0655 114.569 14.0655C114.738 14.0655 114.913 14.0784 115.095 14.1041C115.277 14.1169 115.432 14.1361 115.562 14.1618V11.6199C115.342 11.5557 115.14 11.5236 114.959 11.5236C114.608 11.5236 114.27 11.5749 113.946 11.6776C113.621 11.7803 113.316 11.928 113.031 12.1206C112.745 12.3003 112.492 12.525 112.271 12.7946C112.05 13.0513 111.875 13.3338 111.745 13.6419H111.706V11.7932H109.077Z" fill="#8794BA"/>
<path d="M116.238 7.99951V21.7492H119.003V7.99951H116.238Z" fill="#8794BA"/>
<path fill-rule="evenodd" clip-rule="evenodd" d="M15.0029 21.6662C18.6848 21.6662 21.6696 18.6814 21.6696 14.9995C21.6696 11.3176 18.6848 8.33284 15.0029 8.33284C11.321 8.33284 8.33626 11.3176 8.33626 14.9995C8.33626 18.6814 11.321 21.6662 15.0029 21.6662ZM15.0029 29.9995C23.2872 29.9995 30.0029 23.2838 30.0029 14.9995C30.0029 6.71524 23.2872 -0.000488281 15.0029 -0.000488281C6.71866 -0.000488281 0.00292969 6.71524 0.00292969 14.9995C0.00292969 23.2838 6.71866 29.9995 15.0029 29.9995Z" fill="#8794BA"/>
</svg>
