<svg width="267" height="420" viewBox="10 20 167 42" fill="none" xmlns="http://www.w3.org/2000/svg">
<path d="M55 11V30.6424H59.0079V16.8597H59.0624L63.8337 30.6424H67.1327L71.9041 16.7221H71.9586V30.6424H75.9665V11H69.941L65.6332 24.5076H65.5787L61.0255 11H55Z" fill="white"/>
<path d="M87.2542 22.0041H80.9561C80.9743 21.729 81.0288 21.4172 81.1197 21.0688C81.2288 20.7203 81.4014 20.3902 81.6377 20.0784C81.8922 19.7666 82.2194 19.5099 82.6193 19.3081C83.0373 19.088 83.5553 18.978 84.1733 18.978C85.1185 18.978 85.8183 19.2348 86.2727 19.7483C86.7453 20.2618 87.0725 21.0138 87.2542 22.0041ZM80.9561 24.4801H91.1258C91.1985 23.3796 91.1076 22.3251 90.8532 21.3164C90.5987 20.3077 90.1806 19.409 89.599 18.6204C89.0355 17.8317 88.3085 17.2082 87.4178 16.7497C86.5272 16.2728 85.482 16.0344 84.2824 16.0344C83.21 16.0344 82.2285 16.227 81.3378 16.6121C80.4653 16.9972 79.711 17.5291 79.0749 18.2077C78.4387 18.868 77.9479 19.6566 77.6026 20.5736C77.2572 21.4906 77.0845 22.481 77.0845 23.5447C77.0845 24.6451 77.2481 25.6538 77.5753 26.5708C77.9207 27.4878 78.4023 28.2765 79.0203 28.9367C79.6383 29.597 80.3926 30.1105 81.2833 30.4773C82.1739 30.8258 83.1736 31 84.2824 31C85.8819 31 87.2451 30.6332 88.3721 29.8996C89.499 29.166 90.3351 27.9464 90.8804 26.2407H87.4723C87.3451 26.6809 86.9998 27.1027 86.4363 27.5062C85.8728 27.8913 85.2003 28.0839 84.4187 28.0839C83.3281 28.0839 82.492 27.7996 81.9104 27.2311C81.3287 26.6625 81.0106 25.7455 80.9561 24.4801Z" fill="white"/>
<path d="M102.746 23.4897C102.746 24.0766 102.692 24.6451 102.583 25.1953C102.474 25.7455 102.292 26.2407 102.038 26.6809C101.783 27.1027 101.438 27.442 101.002 27.6988C100.583 27.9555 100.056 28.0839 99.4202 28.0839C98.8204 28.0839 98.3024 27.9555 97.8661 27.6988C97.4481 27.4237 97.0936 27.0752 96.8028 26.6534C96.5302 26.2132 96.3302 25.718 96.203 25.1678C96.0757 24.6176 96.0121 24.0674 96.0121 23.5172C96.0121 22.9303 96.0667 22.3709 96.1757 21.8391C96.303 21.2889 96.4938 20.8028 96.7483 20.381C97.0209 19.9592 97.3754 19.6199 97.8116 19.3631C98.2478 19.1064 98.784 18.978 99.4202 18.978C100.056 18.978 100.583 19.1064 101.002 19.3631C101.42 19.6199 101.756 19.9592 102.01 20.381C102.283 20.7845 102.474 21.2613 102.583 21.8116C102.692 22.3434 102.746 22.9028 102.746 23.4897ZM102.801 28.8267V30.6424H106.482V11H102.61V18.1527H102.556C102.119 17.4558 101.52 16.9331 100.756 16.5846C100.011 16.2178 99.2203 16.0344 98.3842 16.0344C97.3481 16.0344 96.4393 16.2453 95.6577 16.6671C94.8761 17.0706 94.2218 17.6116 93.6946 18.2902C93.1857 18.9688 92.7949 19.7575 92.5223 20.6561C92.2678 21.5365 92.1406 22.4535 92.1406 23.4072C92.1406 24.3975 92.2678 25.3512 92.5223 26.2682C92.7949 27.1852 93.1857 28.0014 93.6946 28.7166C94.2218 29.4136 94.8852 29.9729 95.685 30.3948C96.4847 30.7983 97.4117 31 98.4659 31C99.3929 31 100.22 30.8349 100.947 30.5048C101.692 30.1563 102.292 29.597 102.746 28.8267H102.801Z" fill="white"/>
<path d="M112.098 20.2435V14.3563H115.425C115.915 14.3563 116.388 14.3929 116.842 14.4663C117.297 14.5397 117.697 14.6864 118.042 14.9065C118.387 15.1082 118.66 15.4016 118.86 15.7868C119.078 16.1719 119.187 16.6763 119.187 17.2999C119.187 17.9234 119.078 18.4278 118.86 18.8129C118.66 19.1981 118.387 19.5007 118.042 19.7208C117.697 19.9225 117.297 20.0601 116.842 20.1334C116.388 20.2068 115.915 20.2435 115.425 20.2435H112.098ZM107.818 11V30.6424H112.098V23.5997H116.597C117.815 23.5997 118.851 23.4255 119.705 23.077C120.559 22.7102 121.25 22.2334 121.777 21.6465C122.322 21.0596 122.713 20.3902 122.95 19.6382C123.204 18.8679 123.331 18.0885 123.331 17.2999C123.331 16.4929 123.204 15.7134 122.95 14.9615C122.713 14.2095 122.322 13.5401 121.777 12.9532C121.25 12.3663 120.559 11.8987 119.705 11.5502C118.851 11.1834 117.815 11 116.597 11H107.818Z" fill="white"/>
<path d="M133.522 22.0041H127.224C127.242 21.729 127.297 21.4172 127.388 21.0688C127.497 20.7203 127.669 20.3902 127.906 20.0784C128.16 19.7666 128.487 19.5099 128.887 19.3081C129.305 19.088 129.823 18.978 130.441 18.978C131.386 18.978 132.086 19.2348 132.541 19.7483C133.013 20.2618 133.34 21.0138 133.522 22.0041ZM127.224 24.4801H137.394C137.466 23.3796 137.375 22.3251 137.121 21.3164C136.867 20.3077 136.448 19.409 135.867 18.6204C135.303 17.8317 134.576 17.2082 133.686 16.7497C132.795 16.2728 131.75 16.0344 130.55 16.0344C129.478 16.0344 128.496 16.227 127.606 16.6121C126.733 16.9972 125.979 17.5291 125.343 18.2077C124.706 18.868 124.216 19.6566 123.87 20.5736C123.525 21.4906 123.352 22.481 123.352 23.5447C123.352 24.6451 123.516 25.6538 123.843 26.5708C124.188 27.4878 124.67 28.2765 125.288 28.9367C125.906 29.597 126.66 30.1105 127.551 30.4773C128.442 30.8258 129.441 31 130.55 31C132.15 31 133.513 30.6332 134.64 29.8996C135.767 29.166 136.603 27.9464 137.148 26.2407H133.74C133.613 26.6809 133.268 27.1027 132.704 27.5062C132.141 27.8913 131.468 28.0839 130.687 28.0839C129.596 28.0839 128.76 27.7996 128.178 27.2311C127.597 26.6625 127.278 25.7455 127.224 24.4801Z" fill="white"/>
<path d="M138.845 20.7937C138.899 19.8767 139.126 19.1155 139.526 18.5103C139.926 17.9051 140.435 17.4191 141.053 17.0523C141.671 16.6855 142.362 16.4287 143.125 16.282C143.907 16.1169 144.688 16.0344 145.47 16.0344C146.179 16.0344 146.897 16.0894 147.624 16.1995C148.351 16.2912 149.014 16.4837 149.614 16.7772C150.214 17.0706 150.705 17.4833 151.086 18.0151C151.468 18.5287 151.659 19.2164 151.659 20.0784V27.4787C151.659 28.1206 151.695 28.735 151.768 29.3219C151.841 29.9088 151.968 30.3489 152.15 30.6424H148.224C148.151 30.4223 148.087 30.2022 148.033 29.9821C147.996 29.7437 147.969 29.5053 147.951 29.2668C147.333 29.9088 146.606 30.3581 145.77 30.6149C144.934 30.8716 144.079 31 143.207 31C142.534 31 141.907 30.9175 141.326 30.7524C140.744 30.5873 140.235 30.3306 139.799 29.9821C139.363 29.6337 139.017 29.1935 138.763 28.6616C138.527 28.1298 138.408 27.497 138.408 26.7634C138.408 25.9564 138.545 25.2962 138.817 24.7827C139.108 24.2508 139.472 23.829 139.908 23.5172C140.362 23.2054 140.871 22.9762 141.435 22.8294C142.016 22.6644 142.598 22.536 143.18 22.4443C143.761 22.3526 144.334 22.2792 144.897 22.2242C145.461 22.1692 145.961 22.0867 146.397 21.9766C146.833 21.8666 147.178 21.7107 147.433 21.5089C147.687 21.2889 147.806 20.9771 147.787 20.5736C147.787 20.1518 147.715 19.8216 147.569 19.5832C147.442 19.3265 147.26 19.1339 147.024 19.0055C146.806 18.8588 146.542 18.7671 146.233 18.7304C145.942 18.6754 145.624 18.6479 145.279 18.6479C144.516 18.6479 143.916 18.8129 143.48 19.1431C143.043 19.4732 142.789 20.0234 142.716 20.7937H138.845ZM147.787 23.6823C147.624 23.829 147.415 23.9482 147.16 24.0399C146.924 24.1133 146.66 24.1774 146.37 24.2325C146.097 24.2875 145.806 24.3333 145.497 24.37C145.188 24.4067 144.879 24.4525 144.57 24.5076C144.279 24.5626 143.989 24.6359 143.698 24.7276C143.425 24.8193 143.18 24.9477 142.962 25.1128C142.762 25.2595 142.598 25.4521 142.471 25.6905C142.344 25.9289 142.28 26.2315 142.28 26.5983C142.28 26.9468 142.344 27.2403 142.471 27.4787C142.598 27.7171 142.771 27.9097 142.989 28.0564C143.207 28.1848 143.461 28.2765 143.752 28.3315C144.043 28.3865 144.343 28.414 144.652 28.414C145.415 28.414 146.006 28.2856 146.424 28.0289C146.842 27.7721 147.151 27.4695 147.351 27.121C147.551 26.7542 147.669 26.3874 147.706 26.0206C147.76 25.6538 147.787 25.3604 147.787 25.1403V23.6823Z" fill="white"/>
<path d="M153.104 16.4195V30.6424H156.976V24.2325C156.976 23.5906 157.039 22.9945 157.166 22.4443C157.294 21.8941 157.503 21.4172 157.794 21.0138C158.103 20.5919 158.502 20.2618 158.993 20.0234C159.484 19.785 160.084 19.6657 160.793 19.6657C161.029 19.6657 161.274 19.6841 161.529 19.7208C161.783 19.7391 162.001 19.7666 162.183 19.8033V16.1719C161.874 16.0802 161.592 16.0344 161.338 16.0344C160.847 16.0344 160.375 16.1077 159.92 16.2545C159.466 16.4012 159.039 16.6121 158.639 16.8872C158.239 17.144 157.884 17.4649 157.575 17.8501C157.266 18.2169 157.021 18.6204 156.839 19.0605H156.785V16.4195H153.104Z" fill="white"/>
<path d="M163.128 11V30.6424H167V11H163.128Z" fill="white"/>
<path fill-rule="evenodd" clip-rule="evenodd" d="M21 30.3333C26.1547 30.3333 30.3333 26.1547 30.3333 21C30.3333 15.8453 26.1547 11.6667 21 11.6667C15.8453 11.6667 11.6667 15.8453 11.6667 21C11.6667 26.1547 15.8453 30.3333 21 30.3333ZM21 42C32.598 42 42 32.598 42 21C42 9.40202 32.598 0 21 0C9.40202 0 0 9.40202 0 21C0 32.598 9.40202 42 21 42Z" fill="url(#paint0_linear_105_122)"/>
<defs>
<linearGradient id="paint0_linear_105_122" x1="44.3333" y1="42" x2="44.3333" y2="0" gradientUnits="userSpaceOnUse">
<stop stop-color="#01579A"/>
<stop offset="10" stop-color="#75ED64"/>
</linearGradient>
</defs>
</svg>
